<?xml version="1.0" encoding="UTF-8"?>
<svg width="310px" height="240px" viewBox="0 0 310 240" version="1.1" xmlns="http://www.w3.org/2000/svg" xmlns:xlink="http://www.w3.org/1999/xlink">
    <!-- Generator: Sketch 49.3 (51167) - http://www.bohemiancoding.com/sketch -->
    <title>Page 1</title>
    <desc>Created with Sketch.</desc>
    <defs>
        <polygon id="path-1" points="0 233 304.104 233 304.104 0.089 0 0.089"></polygon>
    </defs>
    <g id="Page-1" stroke="none" stroke-width="1" fill="none" fill-rule="evenodd">
        <g id="设备空页面" transform="translate(-220.000000, -515.000000)">
            <g id="空状态插图" transform="translate(220.000000, 515.000000)">
                <g id="Page-1" transform="translate(3.000000, 3.000000)">
                    <polygon id="Fill-1" fill="#F2F2F2" points="23.0529 108.2819 16.2539 104.1619 9.2889 107.7139 13.4089 100.9149 9.8579 93.9499 16.6569 98.0699 23.6209 94.5189 19.5009 101.3169"></polygon>
                    <g id="Group-37" transform="translate(0.000000, 0.911000)">
                        <path d="M303.1046,7.0174 C303.1046,10.2904 300.4506,12.9454 297.1756,12.9454 C293.9026,12.9454 291.2486,10.2904 291.2486,7.0174 C291.2486,3.7434 293.9026,1.0884 297.1756,1.0884 C300.4506,1.0884 303.1046,3.7434 303.1046,7.0174 Z" id="Stroke-2" stroke="#E2E2E2" stroke-width="2" stroke-linecap="round" stroke-linejoin="round"></path>
                        <path d="M284.8068,143.9364 C284.6438,143.9364 284.4798,143.9064 284.3198,143.8434 C283.6338,143.5744 283.2948,142.8004 283.5658,142.1154 L285.1898,137.9684 C285.4578,137.2814 286.2338,136.9444 286.9178,137.2124 C287.6038,137.4824 287.9428,138.2554 287.6728,138.9424 L286.0478,143.0874 C285.8418,143.6144 285.3388,143.9364 284.8068,143.9364" id="Fill-4" fill="#E2E2E2"></path>
                        <path d="M280.5412,154.825 C280.3802,154.825 280.2142,154.795 280.0562,154.732 C279.3692,154.465 279.0302,153.689 279.3002,153.004 L280.9222,148.858 C281.1912,148.172 281.9652,147.835 282.6502,148.102 C283.3372,148.371 283.6762,149.145 283.4062,149.832 L281.7842,153.977 C281.5772,154.504 281.0742,154.825 280.5412,154.825" id="Fill-6" fill="#E2E2E2"></path>
                        <path d="M291.0041,150.2528 C290.8411,150.2528 290.6771,150.2228 290.5171,150.1598 L286.3711,148.5358 C285.6861,148.2678 285.3471,147.4928 285.6171,146.8078 C285.8871,146.1198 286.6621,145.7848 287.3461,146.0518 L291.4911,147.6758 C292.1761,147.9438 292.5151,148.7188 292.2451,149.4038 C292.0391,149.9308 291.5361,150.2528 291.0041,150.2528" id="Fill-8" fill="#E2E2E2"></path>
                        <path d="M280.1144,145.9862 C279.9514,145.9862 279.7874,145.9572 279.6274,145.8942 L275.4814,144.2702 C274.7964,144.0012 274.4574,143.2272 274.7264,142.5412 C274.9954,141.8542 275.7694,141.5182 276.4564,141.7862 L280.6014,143.4102 C281.2864,143.6782 281.6254,144.4532 281.3554,145.1382 C281.1494,145.6652 280.6464,145.9862 280.1144,145.9862" id="Fill-10" fill="#E2E2E2"></path>
                        <path d="M43.9435,163.2205 C43.8975,145.8405 47.1655,119.3295 65.1985,103.1955 C93.7895,77.6135 144.9535,86.1405 172.5415,58.5525 C200.1305,30.9635 213.1715,10.3985 245.2745,20.4305 C277.3775,30.4615 264.3355,111.7225 245.2745,137.3045 C226.2135,162.8855 178.5605,242.6415 100.3105,228.5965 C82.8585,225.1065 69.3495,216.8885 59.6795,206.1915 C55.4955,201.5615 51.0225,194.4115 48.1435,186.1265 C45.2475,177.7935 43.9575,168.3235 43.9435,163.2205" id="Fill-12" fill="#F5F7FA"></path>
                        <path d="M157.9953,17.8485 C167.3583,17.5875 173.0513,27.1985 168.6543,36.4185 C164.1403,45.8865 151.8083,48.6875 145.6223,44.0885 C141.9363,41.3495 140.3593,37.1335 140.2913,33.4115 C140.2683,32.1545 140.7283,29.3985 141.9433,27.2645 C142.5453,26.2075 144.8273,23.2985 147.9633,21.2445 C151.1563,19.1535 155.2233,17.9255 157.9953,17.8485" id="Fill-14" fill="#F5F7FA"></path>
                        <path d="M125.3908,48.1434 C125.3908,51.9074 120.3688,54.9564 116.2368,54.9564 C112.1038,54.9564 108.7538,51.9074 108.7538,48.1434 C108.7538,44.3804 112.1038,41.3304 116.2368,41.3304 C120.3688,41.3304 125.3908,44.3804 125.3908,48.1434" id="Fill-16" fill="#F5F7FA"></path>
                        <mask id="mask-2" fill="white">
                            <use xlink:href="#path-1"></use>
                        </mask>
                        <g id="Clip-19"></g>
                        <polygon id="Stroke-18" stroke="#999999" stroke-width="4" stroke-linecap="round" stroke-linejoin="round" mask="url(#mask-2)" points="119.987 187.263 218.5 187.263 218.5 88.75 119.987 88.75"></polygon>
                        <polygon id="Stroke-20" stroke="#999999" stroke-width="4" stroke-linecap="round" stroke-linejoin="round" mask="url(#mask-2)" points="175.921 88.7498 193.871 69.1508 236.537 69.1508 218.5 88.7498"></polygon>
                        <polyline id="Stroke-21" stroke="#999999" stroke-width="4" stroke-linecap="round" stroke-linejoin="round" mask="url(#mask-2)" points="119.9874 88.7498 102.0364 69.1508 55.8584 69.1508 74.7624 88.7498 74.7624 187.2628 119.9874 187.2628"></polyline>
                        <path d="M104.3771,88.7498 L74.7631,88.7498" id="Stroke-22" stroke="#999999" stroke-width="4" stroke-linecap="round" stroke-linejoin="round" mask="url(#mask-2)"></path>
                        <path d="M36.0431,187.2625 L65.0071,187.2625" id="Stroke-23" stroke="#999999" stroke-width="4" stroke-linecap="round" stroke-linejoin="round" mask="url(#mask-2)"></path>
                        <path d="M228.1261,187.2625 L257.0901,187.2625" id="Stroke-24" stroke="#999999" stroke-width="4" stroke-linecap="round" stroke-linejoin="round" mask="url(#mask-2)"></path>
                        <path d="M14.8829,187.2625 L26.5019,187.2625" id="Stroke-25" stroke="#999999" stroke-width="4" stroke-linecap="round" stroke-linejoin="round" mask="url(#mask-2)"></path>
                        <path d="M158.4904,58.3983 L158.4904,74.8753" id="Stroke-26" stroke="#999999" stroke-width="4" stroke-linecap="round" stroke-linejoin="round" mask="url(#mask-2)"></path>
                        <path d="M168.0294,74.8748 L176.9184,65.9858" id="Stroke-27" stroke="#999999" stroke-width="4" stroke-linecap="round" stroke-linejoin="round" mask="url(#mask-2)"></path>
                        <path d="M148.5822,74.8748 L139.6932,65.9858" id="Stroke-28" stroke="#999999" stroke-width="4" stroke-linecap="round" stroke-linejoin="round" mask="url(#mask-2)"></path>
                        <path d="M152.1212,110.2567 L131.7322,110.2567 C131.2802,110.2567 130.9132,109.8897 130.9132,109.4377 L130.9132,104.1377 C130.9132,103.6857 131.2802,103.3197 131.7322,103.3197 L152.1212,103.3197 C152.5732,103.3197 152.9402,103.6857 152.9402,104.1377 L152.9402,109.4377 C152.9402,109.8897 152.5732,110.2567 152.1212,110.2567" id="Fill-29" fill="#999999" mask="url(#mask-2)"></path>
                        <path d="M178.6281,110.2567 L158.2981,110.2567 C157.8291,110.2567 157.4491,109.8767 157.4491,109.4077 L157.4491,104.1667 C157.4491,103.6977 157.8291,103.3197 158.2981,103.3197 L178.6281,103.3197 C179.0971,103.3197 179.4771,103.6977 179.4771,104.1667 L179.4771,109.4077 C179.4771,109.8767 179.0971,110.2567 178.6281,110.2567" id="Fill-30" fill="#999999" mask="url(#mask-2)"></path>
                        <path d="M90.254,175.4852 C90.254,177.4752 88.64,179.0892 86.65,179.0892 C84.658,179.0892 83.045,177.4752 83.045,175.4852 C83.045,173.4942 84.658,171.8812 86.65,171.8812 C88.64,171.8812 90.254,173.4942 90.254,175.4852" id="Fill-31" fill="#999999" mask="url(#mask-2)"></path>
                        <path d="M100.9796,175.4852 C100.9796,177.4752 99.3656,179.0892 97.3756,179.0892 C95.3836,179.0892 93.7706,177.4752 93.7706,175.4852 C93.7706,173.4942 95.3836,171.8812 97.3756,171.8812 C99.3656,171.8812 100.9796,173.4942 100.9796,175.4852" id="Fill-32" fill="#999999" mask="url(#mask-2)"></path>
                        <path d="M15.716,42.6463 L58.604,42.6463 C59.409,40.5313 59.87,38.2453 59.87,35.8473 C59.87,25.2893 51.311,16.7293 40.752,16.7293 C31.6,16.7293 23.96,23.1643 22.084,31.7523 C19.996,30.4093 17.526,29.6083 14.858,29.6083 C7.582,29.6083 1.693,35.4173 1.5,42.6463 L7.217,42.6463" id="Stroke-33" stroke="#E5E5E5" stroke-width="3" stroke-linecap="round" stroke-linejoin="round" mask="url(#mask-2)"></path>
                        <path d="M53.6857,231.2332 C53.6367,231.2702 53.5777,231.3072 53.5057,231.3442 C52.7037,231.7542 51.5697,231.2262 51.5697,231.2262 L41.1047,227.1822 C38.8477,227.9082 35.9317,228.3412 32.7467,228.3412 C25.8297,228.3412 20.1767,226.2872 19.8077,223.7022 C19.7957,223.6122 19.7897,223.5222 19.7897,223.4322 C19.7897,220.7242 25.5907,218.5242 32.7467,218.5242 C39.9017,218.5242 45.7007,220.7242 45.7007,223.4322 C45.7007,223.5192 45.6937,223.6062 45.6777,223.6932 C45.5397,224.7372 44.5287,225.6982 42.9257,226.4692 C43.0967,226.5352 43.2947,226.6122 43.5187,226.6962 C46.2057,227.7242 52.3067,230.0642 52.9637,230.3182 C53.6117,230.5662 54.1447,230.8922 53.6857,231.2332 Z" id="Stroke-34" stroke="#E5E5E5" stroke-width="3" stroke-linecap="round" stroke-linejoin="round" mask="url(#mask-2)"></path>
                        <path d="M162.338,210.9793 L197.259,210.9793" id="Stroke-35" stroke="#999999" stroke-width="4" stroke-linecap="round" stroke-linejoin="round" mask="url(#mask-2)"></path>
                        <path d="M141.2277,210.9793 L152.6557,210.9793" id="Stroke-36" stroke="#999999" stroke-width="4" stroke-linecap="round" stroke-linejoin="round" mask="url(#mask-2)"></path>
                    </g>
                </g>
            </g>
        </g>
    </g>
</svg>