<?xml version="1.0" encoding="UTF-8"?>
<svg width="250px" height="180px" viewBox="0 0 250 180" version="1.1" xmlns="http://www.w3.org/2000/svg" xmlns:xlink="http://www.w3.org/1999/xlink">
    <!-- Generator: Sketch 49.3 (51167) - http://www.bohemiancoding.com/sketch -->
    <title>Message</title>
    <desc>Created with Sketch.</desc>
    <defs>
        <path d="M103.712168,77.4735098 L103.712168,100.750909 C103.712168,107.022034 108.790834,112.095627 115.055687,112.095627 C121.321916,112.095627 126.399205,107.016423 126.399205,100.750909 L126.399205,77.4735098 L130.450462,77.4735098 L130.450462,97.8620402 C130.450462,108.909911 121.500543,117.865979 110.458906,117.865979 L84.5581191,117.865979 L19.9967492,117.865979 C8.95284959,117.865979 0,108.911425 0,97.8597775 L0,14.8136385 C0,7.07978131 6.27342158,0.810251315 14.0005589,0.810251315 L89.7116094,0.810251315 C97.4439045,0.810251315 103.712168,7.08296882 103.712168,14.8136385 L103.712168,77.4735098 Z" id="path-1"></path>
        <path d="M126.399205,99.6671422 C126.399205,105.928553 121.321916,111.00443 115.055687,111.00443 C108.790834,111.00443 103.712168,105.91784 103.712168,99.6671422 L103.712168,29.9792986 L115.055687,29.9792986 C121.320539,29.9792986 126.399205,35.0612861 126.399205,41.3309531 L126.399205,99.6671422 Z" id="path-2"></path>
    </defs>
    <g id="Page-1" stroke="none" stroke-width="1" fill="none" fill-rule="evenodd">
        <g id="消息页面（空）" transform="translate(-252.000000, -603.000000)">
            <g id="Message" transform="translate(252.000000, 603.000000)">
                <g transform="translate(20.000000, 20.000000)">
                    <g id="Group-2" transform="translate(47.190742, 5.671759)">
                        <g id="Combined-Shape">
                            <use fill="#F1F1F1" fill-rule="evenodd" xlink:href="#path-1"></use>
                            <path stroke="#CCCCCC" stroke-width="6" d="M127.450462,80.4735098 L127.450462,79.4222533 L128.424833,78.4478816 L129.399205,79.4222533 L129.399205,80.4735098 L127.450462,80.4735098 Z M112.089138,114.788735 C105.589786,113.422973 100.712168,107.659672 100.712168,100.750909 L100.712168,14.8136385 C100.712168,8.73848101 95.7857085,3.81025131 89.7116094,3.81025131 L14.0005589,3.81025131 C7.92845923,3.81025131 3,8.73845206 3,14.8136385 L3,97.8597775 C3,107.253957 10.6090902,114.865979 19.9967492,114.865979 L110.458906,114.865979 C111.008809,114.865979 111.55261,114.83984 112.089138,114.788735 Z"></path>
                        </g>
                        <g id="Combined-Shape">
                            <use fill="#DDDDDD" fill-rule="evenodd" xlink:href="#path-2"></use>
                            <path stroke="#CCCCCC" stroke-width="6" d="M129.399205,99.6671422 C129.399205,107.586196 122.977982,114.00443 115.055687,114.00443 C107.137611,114.00443 100.712168,107.578325 100.712168,99.6671422 L100.712168,26.9792986 L115.055687,26.9792986 C122.977973,26.9792986 129.399205,33.405011 129.399205,41.3309531 L129.399205,99.6671422 Z"></path>
                        </g>
                        <g id="Group" transform="translate(131.910987, 16.013110) rotate(-330.000000) translate(-131.910987, -16.013110) translate(114.085458, 8.315722)" fill="#CCCCCC">
                            <rect id="Rectangle-50" x="16.3930458" y="0.325659278" width="3.24100526" height="8.91276446" rx="1.62050263"></rect>
                            <rect id="Rectangle-50-Copy" transform="translate(31.802364, 9.965312) rotate(-330.000000) translate(-31.802364, -9.965312) " x="30.1818615" y="5.50892956" width="3.24100526" height="8.91276446" rx="1.62050263"></rect>
                            <rect id="Rectangle-50-Copy-2" transform="translate(3.848694, 10.138788) scale(-1, 1) rotate(-330.000000) translate(-3.848694, -10.138788) " x="2.22819111" y="5.68240568" width="3.24100526" height="8.91276446" rx="1.62050263"></rect>
                        </g>
                        <rect id="Rectangle-105-Copy" fill="#DDDDDD" x="16.2050263" y="78.5943775" width="64.8201052" height="4.86150789"></rect>
                        <rect id="Rectangle-105-Copy-3" fill="#DDDDDD" x="16.2050263" y="64.0098538" width="64.8201052" height="4.86150789"></rect>
                        <rect id="Rectangle-105-Copy-2" fill="#DDDDDD" x="16.2050263" y="93.1789012" width="36.4613092" height="4.86150789"></rect>
                        <rect id="Rectangle-116" fill="#DDDDDD" x="16.2050263" y="19.4460315" width="64.8201052" height="32.4100526" rx="4"></rect>
                    </g>
                    <path d="M19.1389889,120.168799 L42.607108,120.168799" id="Stroke-23" stroke="#CCCCCC" stroke-width="5" stroke-linecap="round" stroke-linejoin="round"></path>
                    <path d="M192.225728,120.168799 L205.970831,120.168799" id="Stroke-24" stroke="#CCCCCC" stroke-width="5" stroke-linecap="round" stroke-linejoin="round"></path>
                    <path d="M0,120.168799 L9.41431002,120.168799" id="Stroke-25" stroke="#CCCCCC" stroke-width="5" stroke-linecap="round" stroke-linejoin="round"></path>
                    <path d="M123.354366,141.79398 L151.649152,141.79398" id="Stroke-35" stroke="#CCCCCC" stroke-width="5" stroke-linecap="round" stroke-linejoin="round"></path>
                    <path d="M104.215377,141.79398 L113.474929,141.79398" id="Stroke-36" stroke="#CCCCCC" stroke-width="5" stroke-linecap="round" stroke-linejoin="round"></path>
                    <polygon id="Fill-1" fill="#DDDDDD" points="32.4149994 11.6125218 26.9061007 8.27428642 21.2627003 11.1522991 24.6009357 5.64340041 21.7237333 0 27.232632 3.33823542 32.8752221 0.461032998 29.5369867 5.96912143"></polygon>
                    <path d="M33.9987319,95.7804236 C33.8666609,95.7804236 33.7337797,95.7561161 33.6041395,95.7050702 C33.0483071,95.4871126 32.7736319,94.8599781 32.99321,94.304956 L34.3090581,90.9448438 C34.5262055,90.3882011 35.1549605,90.1151464 35.7091724,90.3322938 C36.2650048,90.5510616 36.53968,91.1773859 36.3209121,91.7340285 L35.0042538,95.0925202 C34.837342,95.5195227 34.4297856,95.7804236 33.9987319,95.7804236" id="Fill-4" fill="#DDDDDD"></path>
                    <path d="M30.812709,104.274025 C30.6822585,104.274025 30.5477568,104.249717 30.4197371,104.198671 C29.8630944,103.982334 29.5884192,103.353579 29.8071871,102.798557 L31.1214147,99.4392551 C31.3393723,98.8834227 31.9665068,98.610368 32.521529,98.8267051 C33.0781716,99.0446627 33.3528468,99.6717973 33.134079,100.22844 L31.8198514,103.586932 C31.6521293,104.013934 31.2445729,104.274025 30.812709,104.274025" id="Fill-6" fill="#DDDDDD"></path>
                    <path d="M39.4813099,101.168917 C39.3492389,101.168917 39.2163577,101.14461 39.0867175,101.093564 L35.7274155,99.7777157 C35.1723934,99.5605684 34.8977182,98.9326236 35.116486,98.3776015 C35.3352539,97.8201486 35.9631987,97.5487144 36.5174106,97.7650515 L39.8759023,99.0808996 C40.4309244,99.298047 40.7055996,99.9259917 40.4868318,100.481014 C40.31992,100.908016 39.9123636,101.168917 39.4813099,101.168917" id="Fill-8" fill="#DDDDDD"></path>
                    <path d="M29.9249742,96.9210278 C29.7929032,96.9210278 29.660022,96.8975305 29.5303818,96.8464847 L26.1710799,95.5306366 C25.6160577,95.312679 25.3413825,94.6855445 25.5593401,94.1297121 C25.7772977,93.5730694 26.4044322,93.300825 26.9610749,93.5179723 L30.3195666,94.8338204 C30.8745887,95.0509678 31.1492639,95.6789126 30.9304961,96.2339347 C30.7635843,96.6609372 30.3560279,96.9210278 29.9249742,96.9210278" id="Fill-10" fill="#DDDDDD"></path>
                </g>
            </g>
        </g>
    </g>
</svg>