<?xml version="1.0" encoding="UTF-8"?>
<svg width="54px" height="54px" viewBox="0 0 54 54" version="1.1" xmlns="http://www.w3.org/2000/svg" xmlns:xlink="http://www.w3.org/1999/xlink">
    <!-- Generator: Sketch 49.3 (51167) - http://www.bohemiancoding.com/sketch -->
    <title>Page 1</title>
    <desc>Created with Sketch.</desc>
    <defs></defs>
    <g id="环境监测" stroke="none" stroke-width="1" fill="none" fill-rule="evenodd" stroke-linecap="round" stroke-linejoin="round">
        <g id="设备地图" transform="translate(-655.000000, -91.000000)" stroke="#4D4D4D" stroke-width="4">
            <g id="Group" transform="translate(655.000000, 91.000000)">
                <g id="Page-1" transform="translate(6.000000, 7.000000)">
                    <path d="M29.2718889,31.643 L2.37188889,31.643 C1.06188889,31.643 -0.000333333333,30.5818889 -0.000333333333,29.2718889 L-0.000333333333,2.37188889 C-0.000333333333,1.06188889 1.06188889,-0.000333333333 2.37188889,-0.000333333333 L29.2718889,-0.000333333333 C30.5818889,-0.000333333333 31.643,1.06188889 31.643,2.37188889 L31.643,29.2718889 C31.643,30.5818889 30.5818889,31.643 29.2718889,31.643 Z" id="Stroke-1"></path>
                    <path d="M10.3184444,31.643 L10.3184444,36.9607778 C10.3184444,38.583 11.6328889,39.8985556 13.2551111,39.8985556 L39.0251111,39.8985556 C40.6473333,39.8985556 41.9617778,38.583 41.9617778,36.9607778 L41.9617778,11.1918889 C41.9617778,9.56966667 40.6473333,8.25522222 39.0251111,8.25522222 L31.6428889,8.25522222" id="Stroke-3"></path>
                </g>
            </g>
        </g>
    </g>
</svg>